<svg xmlns="http://www.w3.org/2000/svg" viewBox="0 0 24 21.6"><defs><style>.cls-1,.cls-2{fill:#00a8e1;}.cls-1{fill-rule:evenodd;}</style></defs><g id="Layer_2" data-name="Layer 2"><g id="Layer_1-2" data-name="Layer 1"><path id="Path_1373" data-name="Path 1373" class="cls-1" d="M7.41,9.88A4.94,4.94,0,1,0,2.47,4.94h0A4.94,4.94,0,0,0,7.41,9.88Zm0-2.47A2.47,2.47,0,1,0,4.94,4.94,2.48,2.48,0,0,0,7.41,7.41Z"/><path id="Path_1374" data-name="Path 1374" class="cls-2" d="M11.11,13a1.24,1.24,0,0,1,1.24,1.23V21.6h2.47V14.19a3.7,3.7,0,0,0-3.7-3.7H3.7A3.7,3.7,0,0,0,0,14.19V21.6H2.47V14.19A1.23,1.23,0,0,1,3.7,13Z"/><path id="Path_1375" data-name="Path 1375" class="cls-2" d="M19.06,4.73h2.47V7.2H24V9.67H21.53v2.47H19.06V9.67H16.59V7.2h2.47Z"/></g></g></svg>